<svg height="512" viewBox="0 0 58 58" width="512" xmlns="http://www.w3.org/2000/svg"><g id="046---Streaming-Gameplay" fill="none"><path id="Shape" d="m57.11 40.7c-1.416-7.291-2.722-15.743-7.65-17.36-2.3923455-.6407539-4.9348277-.4067179-7.17.66h-26.05c-2.4224696-1.0677539-5.1311577-1.2999271-7.7-.66-2.56.84-3.88 3.25-4.77 5.55-1.4 3.6-2.218 8.4-2.88 11.81-.7128111 3.2284184-.98528537 6.5384761-.81 9.84.28 3.41 1.68 7.46 5.87 7.46 4.42 0 7.21-7.33 8.38-11.21l9.67-1.79h10l9.67 1.79c1.17 3.88 3.96 11.21 8.38 11.21 4.19 0 5.59-4.05 5.87-7.46.1752854-3.3015239-.0971889-6.6115816-.81-9.84z" fill="#285680"/><path id="Shape" d="m55.27 33.5c-.0279376 2.917321-1.3801645 5.6638492-3.6752921 7.4649409-2.2951277 1.8010917-5.2843998 2.4615364-8.1247079 1.7950591-1.0385895-2.0722327-3.3652335-3.1589529-5.6209236-2.6254-2.25569.5335529-3.8489212 2.5474664-3.8490764 4.8654h-10c-.0001552-2.3179336-1.5933864-4.3318471-3.8490764-4.8654-2.2556901-.5335529-4.5823341.5531673-5.6209236 2.6254-3.3315058.7910511-6.83178341-.2583155-9.17862826-2.7517092-2.34684485-2.4933936-3.18252631-6.0507452-2.19137174-9.3282908.919-3.062 2.37-6.352 5.38-7.34 2.5688423-.6399271 5.2775304-.4077539 7.7.66h26.05c2.2351723-1.0667179 4.7776545-1.3007539 7.17-.66 2.56.84 3.88 3.25 4.77 5.55.6529614 1.4511568 1.0066739 3.0190556 1.04 4.61z" fill="#4482c3"/><path id="Shape" d="m19.37 40.02c-1.3091749 1.3689143-2.9925535 2.3219013-4.84 2.74.8477128-1.6917046 2.577784-2.7599365 4.47-2.76.1236744-.0035908.2474333.0030989.37.02z" fill="#4482c3"/><path id="Shape" d="m43.47 42.76c-1.8474465-.4180987-3.5308251-1.3710857-4.84-2.74.1225667-.0169011.2463256-.0235908.37-.02 1.892216.0000635 3.6222872 1.0682954 4.47 2.76z" fill="#4482c3"/><g fill="#464f5d"><path id="Shape" d="m24 45c0 2.7614237-2.2385763 5-5 5s-5-2.2385763-5-5 2.2385763-5 5-5 5 2.2385763 5 5z"/><circle id="Oval" cx="39" cy="45" r="5"/><path id="Shape" d="m26 38h-3c-.5522847 0-1-.4477153-1-1s.4477153-1 1-1h3c.5522847 0 1 .4477153 1 1s-.4477153 1-1 1z"/><path id="Shape" d="m35 38h-3c-.5522847 0-1-.4477153-1-1s.4477153-1 1-1h3c.5522847 0 1 .4477153 1 1s-.4477153 1-1 1z"/></g><circle id="Oval" cx="47" cy="35.001" fill="#3b97d3" r="1"/><circle id="Oval" cx="47" cy="28.999" fill="#7ed09e" r="1"/><circle id="Oval" cx="43.999" cy="32" fill="#955ba5" r="1"/><circle id="Oval" cx="50.001" cy="32" fill="#f29c1f" r="1"/><path id="Shape" d="m11 31c-.5522847 0-1-.4477153-1-1v-2c0-.5522847.4477153-1 1-1s1 .4477153 1 1v2c0 .5522847-.4477153 1-1 1z" fill="#464f5d"/><path id="Shape" d="m11 37c-.5522847 0-1-.4477153-1-1v-2c0-.5522847.4477153-1 1-1s1 .4477153 1 1v2c0 .5522847-.4477153 1-1 1z" fill="#464f5d"/><path id="Shape" d="m15 33h-2c-.5522847 0-1-.4477153-1-1s.4477153-1 1-1h2c.5522847 0 1 .4477153 1 1s-.4477153 1-1 1z" fill="#464f5d"/><path id="Shape" d="m9 33h-2c-.55228475 0-1-.4477153-1-1s.44771525-1 1-1h2c.55228475 0 1 .4477153 1 1s-.44771525 1-1 1z" fill="#464f5d"/><path id="Shape" d="m37 16v-14c0-1.1045695-.8954305-2-2-2h-12c-1.1045695 0-2 .8954305-2 2v14h-6c-.398709-.0002066-.7594423.2364535-.9180207.6022701-.1585785.3658167-.0846964.7908788.1880207 1.0817299l14 14c.1890717.2019503.4533557.3165529.73.3165529s.5409283-.1146026.73-.3165529l14-14c.2727171-.2908511.3465992-.7159132.1880207-1.0817299-.1585784-.3658166-.5193117-.6024767-.9180207-.6022701z" fill="#ff5364"/><path id="Shape" d="m25 6c-.5522847 0-1-.44771525-1-1v-1c0-.55228475.4477153-1 1-1s1 .44771525 1 1v1c0 .55228475-.4477153 1-1 1z" fill="#fff"/><path id="Shape" d="m25 20c-.5522847 0-1-.4477153-1-1v-10c0-.55228475.4477153-1 1-1s1 .44771525 1 1v10c0 .5522847-.4477153 1-1 1z" fill="#fff"/></g></svg>